<?xml version="1.0" standalone="no"?>
<!DOCTYPE svg PUBLIC "-//W3C//DTD SVG 20010904//EN"
 "http://www.w3.org/TR/2001/REC-SVG-20010904/DTD/svg10.dtd">
<svg version="1.0" xmlns="http://www.w3.org/2000/svg"
 width="120.000000pt" height="120.000000pt" viewBox="0 0 120.000000 120.000000"
 preserveAspectRatio="xMidYMid meet">

<g transform="translate(0.000000,120.000000) scale(0.100000,-0.100000)"
fill="#000000" stroke="none">
<path d="M200 808 l0 -192 60 59 60 59 0 73 0 73 270 0 270 0 0 -41 c0 -39 -7
-48 -150 -197 l-150 -157 87 -3 87 -3 128 128 128 128 0 132 0 133 -395 0
-395 0 0 -192z"/>
<path d="M311 611 l-111 -119 0 -141 0 -141 395 0 395 0 0 206 0 205 -65 -58
-65 -58 0 -82 0 -83 -270 0 -270 0 0 51 c0 57 -7 47 169 238 l93 101 -80 0
-80 0 -111 -119z"/>
</g>
</svg>
